<?xml version="1.0" encoding="utf-8"?>
<!-- Generator: Adobe Illustrator 16.0.0, SVG Export Plug-In . SVG Version: 6.00 Build 0)  -->
<!DOCTYPE svg PUBLIC "-//W3C//DTD SVG 1.1//EN" "http://www.w3.org/Graphics/SVG/1.1/DTD/svg11.dtd">
<svg version="1.1" id="Layer_1" xmlns="http://www.w3.org/2000/svg" xmlns:xlink="http://www.w3.org/1999/xlink" x="0px" y="0px"
	 width="200px" height="50px" viewBox="0 0 200 50" enable-background="new 0 0 200 50" xml:space="preserve">
<g>
	<rect fill="#EC1C24" width="200" height="50"/>
	<g>
		<path fill="#FFFFFF" d="M165.23,24.512c0.508-0.57,1.134-0.854,1.879-0.854c0.744,0,1.369,0.283,1.874,0.854
			c0.504,0.568,0.756,1.381,0.756,2.438c0,1.082-0.252,1.908-0.756,2.479c-0.505,0.568-1.13,0.852-1.874,0.852
			c-0.745,0-1.371-0.283-1.879-0.852c-0.508-0.57-0.762-1.389-0.762-2.459S164.723,25.08,165.23,24.512 M162.244,29.971
			c0.467,0.861,1.148,1.518,2.047,1.965c0.896,0.447,1.84,0.67,2.828,0.67c1.598,0,2.923-0.537,3.977-1.609
			c1.053-1.072,1.58-2.426,1.58-4.057c0-1.619-0.522-2.957-1.565-4.018c-1.042-1.061-2.38-1.59-4.011-1.59
			c-1.057,0-2.014,0.234-2.869,0.701c-0.857,0.467-1.52,1.145-1.986,2.031s-0.701,1.805-0.701,2.752
			C161.543,28.057,161.777,29.107,162.244,29.971 M153.717,23.82h1.584v8.541h2.854V23.82h2.133v-2.244h-2.133v-0.762
			c0-0.549,0.09-0.92,0.27-1.113c0.178-0.191,0.476-0.289,0.889-0.289c0.419,0,0.855,0.055,1.31,0.162l0.386-1.988
			c-0.779-0.244-1.574-0.367-2.387-0.367c-0.792,0-1.447,0.141-1.965,0.422s-0.874,0.645-1.066,1.092
			c-0.193,0.447-0.289,1.123-0.289,2.031v0.812h-1.584V23.82z M151.758,25.658c0-0.832-0.052-1.473-0.156-1.92
			c-0.105-0.445-0.291-0.846-0.56-1.197c-0.267-0.352-0.661-0.643-1.183-0.867c-0.521-0.229-1.098-0.342-1.727-0.342
			c-1.429,0-2.613,0.609-3.555,1.828v-1.584h-2.65v10.785h2.854v-4.885c0-1.205,0.072-2.031,0.218-2.479
			c0.146-0.445,0.415-0.805,0.808-1.076s0.836-0.406,1.33-0.406c0.387,0,0.717,0.096,0.99,0.285
			c0.275,0.189,0.473,0.455,0.596,0.797c0.121,0.342,0.182,1.096,0.182,2.26v5.504h2.854V25.658z M138.792,17.473h-3.006v14.889
			h3.006V17.473z M119.709,24.322c0.457-0.537,1.024-0.807,1.701-0.807c0.697,0,1.27,0.273,1.716,0.816
			c0.447,0.547,0.671,1.439,0.671,2.678c0,1.109-0.23,1.945-0.691,2.504s-1.018,0.838-1.676,0.838c-0.826,0-1.469-0.373-1.93-1.117
			c-0.318-0.516-0.477-1.348-0.477-2.5C119.023,25.666,119.252,24.861,119.709,24.322 M126.641,17.473h-2.854v5.363
			c-0.88-1.004-1.923-1.504-3.128-1.504c-1.312,0-2.4,0.477-3.26,1.428c-0.86,0.951-1.29,2.34-1.29,4.168
			c0,1.789,0.442,3.182,1.325,4.18c0.884,1,1.945,1.498,3.185,1.498c0.608,0,1.213-0.15,1.813-0.451
			c0.599-0.301,1.117-0.76,1.559-1.377v1.584h2.65V17.473z M110.82,27.752c0,0.684-0.038,1.146-0.112,1.391
			c-0.108,0.373-0.335,0.688-0.68,0.945c-0.468,0.338-0.959,0.508-1.474,0.508c-0.461,0-0.84-0.146-1.138-0.438
			s-0.446-0.637-0.446-1.037c0-0.404,0.187-0.74,0.559-1.004c0.244-0.164,0.762-0.33,1.554-0.498
			c0.792-0.17,1.371-0.314,1.737-0.438V27.752z M107.692,23.816c0.284-0.201,0.68-0.301,1.188-0.301c0.75,0,1.262,0.117,1.532,0.35
			c0.271,0.234,0.407,0.625,0.407,1.174v0.285c-0.516,0.215-1.439,0.449-2.773,0.701c-0.988,0.189-1.744,0.41-2.27,0.664
			s-0.934,0.619-1.225,1.098c-0.291,0.477-0.436,1.02-0.436,1.631c0,0.92,0.32,1.682,0.959,2.283
			c0.641,0.604,1.516,0.904,2.626,0.904c0.629,0,1.222-0.119,1.776-0.355c0.556-0.236,1.078-0.592,1.564-1.066
			c0.02,0.055,0.055,0.166,0.102,0.336c0.109,0.371,0.199,0.654,0.275,0.842h2.822c-0.25-0.514-0.421-0.996-0.514-1.447
			c-0.09-0.449-0.137-1.148-0.137-2.098l0.031-3.33c0-1.24-0.127-2.09-0.381-2.555c-0.254-0.463-0.691-0.846-1.314-1.148
			c-0.623-0.301-1.572-0.451-2.845-0.451c-1.401,0-2.458,0.25-3.169,0.752s-1.212,1.273-1.503,2.316l2.59,0.467
			C107.178,24.365,107.407,24.016,107.692,23.816 M94.877,24.512c0.508-0.57,1.134-0.854,1.879-0.854
			c0.745,0,1.37,0.283,1.874,0.854c0.504,0.568,0.757,1.381,0.757,2.438c0,1.082-0.253,1.908-0.757,2.479
			c-0.504,0.568-1.129,0.852-1.874,0.852c-0.745,0-1.371-0.283-1.879-0.852c-0.508-0.57-0.761-1.389-0.761-2.459
			S94.369,25.08,94.877,24.512 M91.891,29.971c0.468,0.861,1.15,1.518,2.047,1.965s1.84,0.67,2.828,0.67
			c1.598,0,2.924-0.537,3.976-1.609c1.053-1.072,1.58-2.426,1.58-4.057c0-1.619-0.521-2.957-1.564-4.018
			c-1.043-1.061-2.38-1.59-4.012-1.59c-1.056,0-2.013,0.234-2.869,0.701c-0.857,0.467-1.518,1.145-1.986,2.031
			c-0.467,0.887-0.7,1.805-0.7,2.752C91.191,28.057,91.424,29.107,91.891,29.971 M88.614,17.473H85.76v14.889h2.854V17.473z
			 M82.553,25.658c0-0.832-0.052-1.473-0.157-1.92c-0.105-0.445-0.291-0.846-0.559-1.197c-0.267-0.352-0.662-0.643-1.183-0.867
			c-0.521-0.229-1.097-0.342-1.727-0.342c-1.428,0-2.613,0.609-3.554,1.828v-1.584h-2.651v10.785h2.854v-4.885
			c0-1.205,0.073-2.031,0.218-2.479c0.146-0.445,0.415-0.805,0.808-1.076c0.392-0.271,0.836-0.406,1.33-0.406
			c0.386,0,0.716,0.096,0.99,0.285c0.275,0.189,0.473,0.455,0.595,0.797c0.121,0.342,0.182,1.096,0.182,2.26v5.504h2.854V25.658z
			 M61.035,32.361l1.828-6.936l1.859,6.936h2.742l3.463-10.785h-2.813l-2.062,7.068l-1.797-7.068h-2.753l-1.858,7.068l-2.021-7.068
			H54.85l3.412,10.785H61.035z M46.261,24.512c0.507-0.57,1.134-0.854,1.878-0.854c0.745,0,1.37,0.283,1.874,0.854
			c0.505,0.568,0.757,1.381,0.757,2.438c0,1.082-0.252,1.908-0.757,2.479c-0.504,0.568-1.129,0.852-1.874,0.852
			c-0.744,0-1.371-0.283-1.878-0.852c-0.508-0.57-0.762-1.389-0.762-2.459S45.753,25.08,46.261,24.512 M43.275,29.971
			c0.467,0.861,1.149,1.518,2.046,1.965s1.84,0.67,2.829,0.67c1.597,0,2.923-0.537,3.976-1.609c1.053-1.072,1.579-2.426,1.579-4.057
			c0-1.619-0.521-2.957-1.564-4.018s-2.38-1.59-4.012-1.59c-1.056,0-2.012,0.234-2.869,0.701s-1.518,1.145-1.985,2.031
			c-0.468,0.887-0.701,1.805-0.701,2.752C42.574,28.057,42.807,29.107,43.275,29.971 M32.268,19.992
			c1.225,0,2.048,0.047,2.468,0.143c0.562,0.121,1.026,0.354,1.391,0.701c0.366,0.344,0.65,0.824,0.854,1.441
			c0.203,0.615,0.304,1.5,0.304,2.65s-0.101,2.061-0.304,2.727c-0.204,0.668-0.466,1.146-0.788,1.438
			c-0.321,0.291-0.726,0.498-1.213,0.619c-0.373,0.096-0.979,0.143-1.818,0.143h-2.245v-9.861H32.268z M27.911,32.361h5.657
			c1.11,0,1.997-0.104,2.661-0.314c0.887-0.283,1.591-0.68,2.112-1.188c0.691-0.67,1.223-1.547,1.595-2.631
			c0.305-0.887,0.457-1.943,0.457-3.168c0-1.396-0.162-2.568-0.487-3.52c-0.325-0.951-0.799-1.756-1.422-2.412
			s-1.371-1.113-2.245-1.371c-0.65-0.189-1.594-0.285-2.833-0.285h-5.495V32.361z"/>
	</g>
</g>
</svg>
